<?xml version="1.0" encoding="UTF-8" standalone="no"?>
<!DOCTYPE svg PUBLIC "-//W3C//DTD SVG 1.1//EN" "http://www.w3.org/Graphics/SVG/1.1/DTD/svg11.dtd">
<svg xmlns="http://www.w3.org/2000/svg" version="1.1" viewBox="0 0 863 560">
<g stroke-width="2.00" fill="none" stroke-linecap="butt">
<path stroke="#8d8eaa" vector-effect="non-scaling-stroke" d="
  M 863.00 266.31
  C 859.50 219.05 822.57 179.30 784.85 153.63
  C 746.64 127.62 703.18 108.71 659.01 95.47
  C 566.46 67.71 468.86 59.66 372.44 65.66
  C 293.18 70.59 211.86 86.96 139.04 119.26
  C 82.23 144.46 10.81 191.07 0.00 257.69"
/>
<path stroke="#8d8eaa" vector-effect="non-scaling-stroke" d="
  M 863.00 285.06
  C 859.35 331.16 823.55 370.26 787.20 395.44
  Q 755.33 417.52 719.76 432.95
  C 649.53 463.41 573.09 478.74 497.06 484.61
  C 427.28 489.99 352.85 486.62 282.18 474.12
  C 207.16 460.84 129.17 435.90 67.37 389.88
  C 35.98 366.50 6.80 333.38 0.00 293.44"
/>
<path stroke="#8b8baa" vector-effect="non-scaling-stroke" d="
  M 32.30 240.74
  C 7.93 294.73 45.20 342.24 86.86 372.18
  C 138.79 409.49 202.66 431.35 265.79 444.29
  Q 398.56 471.51 532.90 454.87
  C 604.39 446.03 674.57 428.73 737.47 395.54
  C 775.40 375.52 819.97 342.96 833.73 300.21
  C 849.29 251.88 815.82 209.29 779.53 181.96
  C 743.67 154.95 701.43 135.88 658.70 122.65
  C 567.46 94.40 469.34 84.66 374.22 91.72
  C 287.31 98.18 199.07 115.03 121.55 156.79
  C 86.60 175.62 49.06 203.63 32.30 240.74"
/>
<path stroke="#7e7d80" vector-effect="non-scaling-stroke" d="
  M 394.20 238.78
  Q 385.52 232.34 374.25 231.61
  C 338.63 229.29 318.96 264.33 317.91 295.57
  Q 317.63 304.18 319.40 310.28
  C 325.68 331.92 351.03 341.28 369.51 327.95
  C 371.82 326.29 374.03 323.81 376.19 321.72
  A 0.72 0.71 51.3 0 1 377.29 321.85
  C 387.95 338.18 412.09 336.80 425.68 325.75
  C 430.00 322.24 435.07 314.02 432.19 308.10
  A 1.02 1.02 0.0 0 0 430.50 307.87
  C 428.92 309.70 425.44 313.14 422.97 310.43
  Q 421.62 308.96 422.20 307.06
  Q 435.46 263.63 448.58 220.23
  Q 451.46 210.69 451.39 207.09
  C 451.13 193.97 437.49 191.30 426.94 191.87
  C 419.74 192.26 400.08 194.76 395.83 201.32
  C 393.15 205.45 398.47 208.52 400.84 210.96
  Q 402.85 213.03 402.01 215.80
  L 395.12 238.47
  A 0.60 0.59 -63.2 0 1 394.20 238.78"
/>
<path stroke="#7e7d80" vector-effect="non-scaling-stroke" d="
  M 549.06 310.60
  Q 547.55 309.35 548.12 307.47
  Q 562.23 261.12 576.09 214.95
  C 581.56 196.71 567.79 190.96 552.69 191.92
  C 543.49 192.50 527.91 194.37 521.68 201.51
  Q 519.81 203.65 521.65 205.82
  C 524.50 209.19 529.36 211.02 527.74 216.59
  Q 524.60 227.37 521.05 238.49
  A 0.59 0.59 0.0 0 1 520.14 238.79
  C 510.37 231.70 497.97 230.24 486.43 232.62
  C 458.88 238.32 444.44 271.08 443.91 296.07
  Q 443.73 304.94 445.69 311.09
  C 452.50 332.47 476.69 340.61 495.25 328.14
  C 497.74 326.46 500.02 323.76 502.40 321.56
  A 0.43 0.42 -38.1 0 1 503.04 321.63
  C 514.34 338.69 539.71 337.00 553.04 324.29
  C 557.13 320.39 560.68 313.57 558.15 308.00
  A 0.82 0.82 0.0 0 0 556.85 307.74
  C 554.93 309.51 551.99 313.03 549.06 310.60"
/>
<path stroke="#7e7d80" vector-effect="non-scaling-stroke" d="
  M 120.63 288.39
  A 1.37 1.35 -80.5 0 1 121.95 287.44
  Q 134.53 287.65 146.38 287.32
  C 174.30 286.55 197.72 273.84 202.78 245.13
  C 207.12 220.57 188.63 206.57 165.92 206.06
  Q 138.31 205.44 102.00 205.60
  C 96.96 205.63 86.01 205.29 86.32 212.66
  C 86.45 215.71 89.41 218.06 89.97 221.24
  Q 90.59 224.76 90.03 226.76
  Q 78.19 268.64 66.33 310.51
  C 65.18 314.57 63.70 318.18 60.43 320.17
  C 56.43 322.61 52.25 324.85 53.28 329.19
  C 53.82 331.49 57.33 333.46 59.31 333.46
  Q 98.56 333.62 114.31 333.44
  Q 117.33 333.41 120.02 331.77
  C 125.83 328.23 119.45 323.62 117.01 320.99
  C 114.46 318.24 113.20 315.34 114.07 311.81
  Q 117.04 299.70 120.63 288.39"
/>
<path stroke="#7e7d80" vector-effect="non-scaling-stroke" d="
  M 191.54 300.74
  C 193.73 327.26 218.12 334.45 240.34 335.26
  C 274.40 336.51 306.05 316.06 312.95 281.52
  C 321.22 240.15 284.33 228.63 251.95 233.17
  C 218.41 237.86 188.59 264.98 191.54 300.74"
/>
<path stroke="#7e7d80" vector-effect="non-scaling-stroke" d="
  M 628.40 320.52
  C 638.38 341.04 673.29 336.95 683.21 318.43
  C 684.20 316.58 686.54 307.77 682.77 307.84
  A 1.17 1.14 20.0 0 0 681.94 308.21
  C 680.76 309.49 679.06 311.33 677.23 311.31
  Q 676.22 311.30 675.30 310.91
  Q 673.09 309.98 673.76 307.67
  Q 678.03 292.90 682.26 278.14
  C 694.40 235.75 650.14 229.41 621.23 233.08
  C 610.39 234.46 592.44 240.31 592.57 254.41
  C 592.68 266.52 608.46 270.23 617.57 268.13
  Q 635.17 264.06 632.22 245.67
  A 0.73 0.73 0.0 0 1 632.92 244.83
  C 652.38 244.26 640.73 270.46 636.57 278.81
  A 0.95 0.94 22.0 0 1 635.43 279.29
  C 614.22 272.72 580.00 269.42 569.34 295.55
  Q 565.71 304.44 567.55 312.70
  C 573.37 338.89 608.25 339.26 624.36 323.22
  Q 625.94 321.65 627.77 320.35
  A 0.43 0.42 59.7 0 1 628.40 320.52"
/>
<path stroke="#7e7d80" vector-effect="non-scaling-stroke" d="
  M 686.02 330.37
  C 687.16 332.54 690.12 333.46 692.50 333.48
  Q 711.49 333.59 745.31 333.45
  C 748.75 333.44 753.24 332.72 754.11 329.37
  Q 754.75 326.94 752.62 325.61
  C 749.23 323.48 743.69 319.86 745.18 314.98
  Q 752.31 291.73 759.50 268.50
  C 760.45 265.44 761.65 260.42 764.55 259.11
  C 767.91 257.60 769.73 259.71 771.44 262.61
  C 776.58 271.28 779.83 278.44 791.73 277.57
  C 819.53 275.54 816.56 229.86 785.93 232.37
  Q 772.11 233.50 764.31 244.95
  Q 763.42 246.26 762.92 244.76
  C 756.53 225.61 727.25 232.62 714.57 238.08
  Q 709.75 240.16 708.56 244.46
  A 1.17 1.15 -53.0 0 0 708.68 245.38
  C 711.50 250.08 716.86 251.04 714.75 258.00
  Q 706.72 284.39 698.63 310.76
  C 697.31 315.06 696.48 318.24 693.17 321.45
  C 690.86 323.69 683.85 326.19 686.02 330.37"
/>
<path stroke="#7e7d80" vector-effect="non-scaling-stroke" d="
  M 361.32 302.49
  C 361.53 307.09 365.83 311.09 370.32 309.15
  C 374.09 307.51 375.53 301.67 376.75 297.75
  Q 383.67 275.51 390.55 253.16
  A 1.77 1.76 -63.0 0 0 389.93 251.24
  C 384.22 246.92 377.74 250.12 374.26 255.29
  Q 360.16 276.28 361.32 302.49"
/>
<path stroke="#7e7d80" vector-effect="non-scaling-stroke" d="
  M 487.20 302.01
  C 487.44 309.39 495.74 312.72 499.79 305.71
  Q 501.01 303.60 501.72 301.28
  L 516.65 252.82
  A 0.88 0.87 30.9 0 0 516.43 251.95
  C 511.22 246.67 503.79 249.88 500.26 255.27
  Q 486.34 276.49 487.20 302.01"
/>
<path stroke="#7e7d80" vector-effect="non-scaling-stroke" d="
  M 152.30 258.04
  C 155.69 250.27 166.12 223.18 149.48 223.04
  Q 142.66 222.99 139.59 223.11
  A 0.75 0.75 0.0 0 0 138.90 223.65
  L 125.73 269.83
  A 0.70 0.70 0.0 0 0 126.35 270.72
  C 138.37 271.73 147.08 270.00 152.30 258.04"
/>
<path stroke="#7e7d80" vector-effect="non-scaling-stroke" d="
  M 239.87 318.29
  C 247.99 321.34 252.76 309.48 255.02 303.50
  C 257.89 295.89 274.55 252.22 264.68 249.33
  C 251.53 245.47 240.12 295.00 238.30 303.55
  C 237.41 307.77 237.14 311.53 237.66 315.50
  Q 237.93 317.56 239.87 318.29"
/>
<path stroke="#7e7d80" vector-effect="non-scaling-stroke" d="
  M 615.86 309.78
  C 626.34 314.46 630.50 297.34 632.56 291.29
  A 0.43 0.43 0.0 0 0 632.23 290.73
  Q 625.94 289.57 622.26 290.53
  C 615.19 292.38 611.16 301.04 613.83 307.68
  A 3.90 3.89 1.0 0 0 615.86 309.78"
/>
</g>
<path fill="#ffffff" d="
  M 0.00 0.00
  L 863.00 0.00
  L 863.00 266.31
  C 859.50 219.05 822.57 179.30 784.85 153.63
  C 746.64 127.62 703.18 108.71 659.01 95.47
  C 566.46 67.71 468.86 59.66 372.44 65.66
  C 293.18 70.59 211.86 86.96 139.04 119.26
  C 82.23 144.46 10.81 191.07 0.00 257.69
  L 0.00 0.00
  Z"
/>
<path fill="#1b1c54" d="
  M 863.00 266.31
  L 863.00 285.06
  C 859.35 331.16 823.55 370.26 787.20 395.44
  Q 755.33 417.52 719.76 432.95
  C 649.53 463.41 573.09 478.74 497.06 484.61
  C 427.28 489.99 352.85 486.62 282.18 474.12
  C 207.16 460.84 129.17 435.90 67.37 389.88
  C 35.98 366.50 6.80 333.38 0.00 293.44
  L 0.00 257.69
  C 10.81 191.07 82.23 144.46 139.04 119.26
  C 211.86 86.96 293.18 70.59 372.44 65.66
  C 468.86 59.66 566.46 67.71 659.01 95.47
  C 703.18 108.71 746.64 127.62 784.85 153.63
  C 822.57 179.30 859.50 219.05 863.00 266.31
  Z
  M 32.30 240.74
  C 7.93 294.73 45.20 342.24 86.86 372.18
  C 138.79 409.49 202.66 431.35 265.79 444.29
  Q 398.56 471.51 532.90 454.87
  C 604.39 446.03 674.57 428.73 737.47 395.54
  C 775.40 375.52 819.97 342.96 833.73 300.21
  C 849.29 251.88 815.82 209.29 779.53 181.96
  C 743.67 154.95 701.43 135.88 658.70 122.65
  C 567.46 94.40 469.34 84.66 374.22 91.72
  C 287.31 98.18 199.07 115.03 121.55 156.79
  C 86.60 175.62 49.06 203.63 32.30 240.74
  Z"
/>
<path fill="#fbfaff" d="
  M 32.30 240.74
  C 49.06 203.63 86.60 175.62 121.55 156.79
  C 199.07 115.03 287.31 98.18 374.22 91.72
  C 469.34 84.66 567.46 94.40 658.70 122.65
  C 701.43 135.88 743.67 154.95 779.53 181.96
  C 815.82 209.29 849.29 251.88 833.73 300.21
  C 819.97 342.96 775.40 375.52 737.47 395.54
  C 674.57 428.73 604.39 446.03 532.90 454.87
  Q 398.56 471.51 265.79 444.29
  C 202.66 431.35 138.79 409.49 86.86 372.18
  C 45.20 342.24 7.93 294.73 32.30 240.74
  Z
  M 394.20 238.78
  Q 385.52 232.34 374.25 231.61
  C 338.63 229.29 318.96 264.33 317.91 295.57
  Q 317.63 304.18 319.40 310.28
  C 325.68 331.92 351.03 341.28 369.51 327.95
  C 371.82 326.29 374.03 323.81 376.19 321.72
  A 0.72 0.71 51.3 0 1 377.29 321.85
  C 387.95 338.18 412.09 336.80 425.68 325.75
  C 430.00 322.24 435.07 314.02 432.19 308.10
  A 1.02 1.02 0.0 0 0 430.50 307.87
  C 428.92 309.70 425.44 313.14 422.97 310.43
  Q 421.62 308.96 422.20 307.06
  Q 435.46 263.63 448.58 220.23
  Q 451.46 210.69 451.39 207.09
  C 451.13 193.97 437.49 191.30 426.94 191.87
  C 419.74 192.26 400.08 194.76 395.83 201.32
  C 393.15 205.45 398.47 208.52 400.84 210.96
  Q 402.85 213.03 402.01 215.80
  L 395.12 238.47
  A 0.60 0.59 -63.2 0 1 394.20 238.78
  Z
  M 549.06 310.60
  Q 547.55 309.35 548.12 307.47
  Q 562.23 261.12 576.09 214.95
  C 581.56 196.71 567.79 190.96 552.69 191.92
  C 543.49 192.50 527.91 194.37 521.68 201.51
  Q 519.81 203.65 521.65 205.82
  C 524.50 209.19 529.36 211.02 527.74 216.59
  Q 524.60 227.37 521.05 238.49
  A 0.59 0.59 0.0 0 1 520.14 238.79
  C 510.37 231.70 497.97 230.24 486.43 232.62
  C 458.88 238.32 444.44 271.08 443.91 296.07
  Q 443.73 304.94 445.69 311.09
  C 452.50 332.47 476.69 340.61 495.25 328.14
  C 497.74 326.46 500.02 323.76 502.40 321.56
  A 0.43 0.42 -38.1 0 1 503.04 321.63
  C 514.34 338.69 539.71 337.00 553.04 324.29
  C 557.13 320.39 560.68 313.57 558.15 308.00
  A 0.82 0.82 0.0 0 0 556.85 307.74
  C 554.93 309.51 551.99 313.03 549.06 310.60
  Z
  M 120.63 288.39
  A 1.37 1.35 -80.5 0 1 121.95 287.44
  Q 134.53 287.65 146.38 287.32
  C 174.30 286.55 197.72 273.84 202.78 245.13
  C 207.12 220.57 188.63 206.57 165.92 206.06
  Q 138.31 205.44 102.00 205.60
  C 96.96 205.63 86.01 205.29 86.32 212.66
  C 86.45 215.71 89.41 218.06 89.97 221.24
  Q 90.59 224.76 90.03 226.76
  Q 78.19 268.64 66.33 310.51
  C 65.18 314.57 63.70 318.18 60.43 320.17
  C 56.43 322.61 52.25 324.85 53.28 329.19
  C 53.82 331.49 57.33 333.46 59.31 333.46
  Q 98.56 333.62 114.31 333.44
  Q 117.33 333.41 120.02 331.77
  C 125.83 328.23 119.45 323.62 117.01 320.99
  C 114.46 318.24 113.20 315.34 114.07 311.81
  Q 117.04 299.70 120.63 288.39
  Z
  M 191.54 300.74
  C 193.73 327.26 218.12 334.45 240.34 335.26
  C 274.40 336.51 306.05 316.06 312.95 281.52
  C 321.22 240.15 284.33 228.63 251.95 233.17
  C 218.41 237.86 188.59 264.98 191.54 300.74
  Z
  M 628.40 320.52
  C 638.38 341.04 673.29 336.95 683.21 318.43
  C 684.20 316.58 686.54 307.77 682.77 307.84
  A 1.17 1.14 20.0 0 0 681.94 308.21
  C 680.76 309.49 679.06 311.33 677.23 311.31
  Q 676.22 311.30 675.30 310.91
  Q 673.09 309.98 673.76 307.67
  Q 678.03 292.90 682.26 278.14
  C 694.40 235.75 650.14 229.41 621.23 233.08
  C 610.39 234.46 592.44 240.31 592.57 254.41
  C 592.68 266.52 608.46 270.23 617.57 268.13
  Q 635.17 264.06 632.22 245.67
  A 0.73 0.73 0.0 0 1 632.92 244.83
  C 652.38 244.26 640.73 270.46 636.57 278.81
  A 0.95 0.94 22.0 0 1 635.43 279.29
  C 614.22 272.72 580.00 269.42 569.34 295.55
  Q 565.71 304.44 567.55 312.70
  C 573.37 338.89 608.25 339.26 624.36 323.22
  Q 625.94 321.65 627.77 320.35
  A 0.43 0.42 59.7 0 1 628.40 320.52
  Z
  M 686.02 330.37
  C 687.16 332.54 690.12 333.46 692.50 333.48
  Q 711.49 333.59 745.31 333.45
  C 748.75 333.44 753.24 332.72 754.11 329.37
  Q 754.75 326.94 752.62 325.61
  C 749.23 323.48 743.69 319.86 745.18 314.98
  Q 752.31 291.73 759.50 268.50
  C 760.45 265.44 761.65 260.42 764.55 259.11
  C 767.91 257.60 769.73 259.71 771.44 262.61
  C 776.58 271.28 779.83 278.44 791.73 277.57
  C 819.53 275.54 816.56 229.86 785.93 232.37
  Q 772.11 233.50 764.31 244.95
  Q 763.42 246.26 762.92 244.76
  C 756.53 225.61 727.25 232.62 714.57 238.08
  Q 709.75 240.16 708.56 244.46
  A 1.17 1.15 -53.0 0 0 708.68 245.38
  C 711.50 250.08 716.86 251.04 714.75 258.00
  Q 706.72 284.39 698.63 310.76
  C 697.31 315.06 696.48 318.24 693.17 321.45
  C 690.86 323.69 683.85 326.19 686.02 330.37
  Z"
/>
<path fill="#000000" d="
  M 394.20 238.78
  A 0.60 0.59 -63.2 0 0 395.12 238.47
  L 402.01 215.80
  Q 402.85 213.03 400.84 210.96
  C 398.47 208.52 393.15 205.45 395.83 201.32
  C 400.08 194.76 419.74 192.26 426.94 191.87
  C 437.49 191.30 451.13 193.97 451.39 207.09
  Q 451.46 210.69 448.58 220.23
  Q 435.46 263.63 422.20 307.06
  Q 421.62 308.96 422.97 310.43
  C 425.44 313.14 428.92 309.70 430.50 307.87
  A 1.02 1.02 0.0 0 1 432.19 308.10
  C 435.07 314.02 430.00 322.24 425.68 325.75
  C 412.09 336.80 387.95 338.18 377.29 321.85
  A 0.72 0.71 51.3 0 0 376.19 321.72
  C 374.03 323.81 371.82 326.29 369.51 327.95
  C 351.03 341.28 325.68 331.92 319.40 310.28
  Q 317.63 304.18 317.91 295.57
  C 318.96 264.33 338.63 229.29 374.25 231.61
  Q 385.52 232.34 394.20 238.78
  Z
  M 361.32 302.49
  C 361.53 307.09 365.83 311.09 370.32 309.15
  C 374.09 307.51 375.53 301.67 376.75 297.75
  Q 383.67 275.51 390.55 253.16
  A 1.77 1.76 -63.0 0 0 389.93 251.24
  C 384.22 246.92 377.74 250.12 374.26 255.29
  Q 360.16 276.28 361.32 302.49
  Z"
/>
<path fill="#000000" d="
  M 549.06 310.60
  C 551.99 313.03 554.93 309.51 556.85 307.74
  A 0.82 0.82 0.0 0 1 558.15 308.00
  C 560.68 313.57 557.13 320.39 553.04 324.29
  C 539.71 337.00 514.34 338.69 503.04 321.63
  A 0.43 0.42 -38.1 0 0 502.40 321.56
  C 500.02 323.76 497.74 326.46 495.25 328.14
  C 476.69 340.61 452.50 332.47 445.69 311.09
  Q 443.73 304.94 443.91 296.07
  C 444.44 271.08 458.88 238.32 486.43 232.62
  C 497.97 230.24 510.37 231.70 520.14 238.79
  A 0.59 0.59 0.0 0 0 521.05 238.49
  Q 524.60 227.37 527.74 216.59
  C 529.36 211.02 524.50 209.19 521.65 205.82
  Q 519.81 203.65 521.68 201.51
  C 527.91 194.37 543.49 192.50 552.69 191.92
  C 567.79 190.96 581.56 196.71 576.09 214.95
  Q 562.23 261.12 548.12 307.47
  Q 547.55 309.35 549.06 310.60
  Z
  M 487.20 302.01
  C 487.44 309.39 495.74 312.72 499.79 305.71
  Q 501.01 303.60 501.72 301.28
  L 516.65 252.82
  A 0.88 0.87 30.9 0 0 516.43 251.95
  C 511.22 246.67 503.79 249.88 500.26 255.27
  Q 486.34 276.49 487.20 302.01
  Z"
/>
<path fill="#000000" d="
  M 120.63 288.39
  Q 117.04 299.70 114.07 311.81
  C 113.20 315.34 114.46 318.24 117.01 320.99
  C 119.45 323.62 125.83 328.23 120.02 331.77
  Q 117.33 333.41 114.31 333.44
  Q 98.56 333.62 59.31 333.46
  C 57.33 333.46 53.82 331.49 53.28 329.19
  C 52.25 324.85 56.43 322.61 60.43 320.17
  C 63.70 318.18 65.18 314.57 66.33 310.51
  Q 78.19 268.64 90.03 226.76
  Q 90.59 224.76 89.97 221.24
  C 89.41 218.06 86.45 215.71 86.32 212.66
  C 86.01 205.29 96.96 205.63 102.00 205.60
  Q 138.31 205.44 165.92 206.06
  C 188.63 206.57 207.12 220.57 202.78 245.13
  C 197.72 273.84 174.30 286.55 146.38 287.32
  Q 134.53 287.65 121.95 287.44
  A 1.37 1.35 -80.5 0 0 120.63 288.39
  Z
  M 152.30 258.04
  C 155.69 250.27 166.12 223.18 149.48 223.04
  Q 142.66 222.99 139.59 223.11
  A 0.75 0.75 0.0 0 0 138.90 223.65
  L 125.73 269.83
  A 0.70 0.70 0.0 0 0 126.35 270.72
  C 138.37 271.73 147.08 270.00 152.30 258.04
  Z"
/>
<path fill="#fbfaff" d="
  M 149.48 223.04
  C 166.12 223.18 155.69 250.27 152.30 258.04
  C 147.08 270.00 138.37 271.73 126.35 270.72
  A 0.70 0.70 0.0 0 1 125.73 269.83
  L 138.90 223.65
  A 0.75 0.75 0.0 0 1 139.59 223.11
  Q 142.66 222.99 149.48 223.04
  Z"
/>
<path fill="#000000" d="
  M 240.34 335.26
  C 218.12 334.45 193.73 327.26 191.54 300.74
  C 188.59 264.98 218.41 237.86 251.95 233.17
  C 284.33 228.63 321.22 240.15 312.95 281.52
  C 306.05 316.06 274.40 336.51 240.34 335.26
  Z
  M 239.87 318.29
  C 247.99 321.34 252.76 309.48 255.02 303.50
  C 257.89 295.89 274.55 252.22 264.68 249.33
  C 251.53 245.47 240.12 295.00 238.30 303.55
  C 237.41 307.77 237.14 311.53 237.66 315.50
  Q 237.93 317.56 239.87 318.29
  Z"
/>
<path fill="#000000" d="
  M 627.77 320.35
  Q 625.94 321.65 624.36 323.22
  C 608.25 339.26 573.37 338.89 567.55 312.70
  Q 565.71 304.44 569.34 295.55
  C 580.00 269.42 614.22 272.72 635.43 279.29
  A 0.95 0.94 22.0 0 0 636.57 278.81
  C 640.73 270.46 652.38 244.26 632.92 244.83
  A 0.73 0.73 0.0 0 0 632.22 245.67
  Q 635.17 264.06 617.57 268.13
  C 608.46 270.23 592.68 266.52 592.57 254.41
  C 592.44 240.31 610.39 234.46 621.23 233.08
  C 650.14 229.41 694.40 235.75 682.26 278.14
  Q 678.03 292.90 673.76 307.67
  Q 673.09 309.98 675.30 310.91
  Q 676.22 311.30 677.23 311.31
  C 679.06 311.33 680.76 309.49 681.94 308.21
  A 1.17 1.14 20.0 0 1 682.77 307.84
  C 686.54 307.77 684.20 316.58 683.21 318.43
  C 673.29 336.95 638.38 341.04 628.40 320.52
  A 0.43 0.42 59.7 0 0 627.77 320.35
  Z
  M 615.86 309.78
  C 626.34 314.46 630.50 297.34 632.56 291.29
  A 0.43 0.43 0.0 0 0 632.23 290.73
  Q 625.94 289.57 622.26 290.53
  C 615.19 292.38 611.16 301.04 613.83 307.68
  A 3.90 3.89 1.0 0 0 615.86 309.78
  Z"
/>
<path fill="#000000" d="
  M 686.02 330.37
  C 683.85 326.19 690.86 323.69 693.17 321.45
  C 696.48 318.24 697.31 315.06 698.63 310.76
  Q 706.72 284.39 714.75 258.00
  C 716.86 251.04 711.50 250.08 708.68 245.38
  A 1.17 1.15 -53.0 0 1 708.56 244.46
  Q 709.75 240.16 714.57 238.08
  C 727.25 232.62 756.53 225.61 762.92 244.76
  Q 763.42 246.26 764.31 244.95
  Q 772.11 233.50 785.93 232.37
  C 816.56 229.86 819.53 275.54 791.73 277.57
  C 779.83 278.44 776.58 271.28 771.44 262.61
  C 769.73 259.71 767.91 257.60 764.55 259.11
  C 761.65 260.42 760.45 265.44 759.50 268.50
  Q 752.31 291.73 745.18 314.98
  C 743.69 319.86 749.23 323.48 752.62 325.61
  Q 754.75 326.94 754.11 329.37
  C 753.24 332.72 748.75 333.44 745.31 333.45
  Q 711.49 333.59 692.50 333.48
  C 690.12 333.46 687.16 332.54 686.02 330.37
  Z"
/>
<path fill="#fbfaff" d="
  M 239.87 318.29
  Q 237.93 317.56 237.66 315.50
  C 237.14 311.53 237.41 307.77 238.30 303.55
  C 240.12 295.00 251.53 245.47 264.68 249.33
  C 274.55 252.22 257.89 295.89 255.02 303.50
  C 252.76 309.48 247.99 321.34 239.87 318.29
  Z"
/>
<path fill="#fbfaff" d="
  M 370.32 309.15
  C 365.83 311.09 361.53 307.09 361.32 302.49
  Q 360.16 276.28 374.26 255.29
  C 377.74 250.12 384.22 246.92 389.93 251.24
  A 1.77 1.76 -63.0 0 1 390.55 253.16
  Q 383.67 275.51 376.75 297.75
  C 375.53 301.67 374.09 307.51 370.32 309.15
  Z"
/>
<path fill="#fbfaff" d="
  M 499.79 305.71
  C 495.74 312.72 487.44 309.39 487.20 302.01
  Q 486.34 276.49 500.26 255.27
  C 503.79 249.88 511.22 246.67 516.43 251.95
  A 0.88 0.87 30.9 0 1 516.65 252.82
  L 501.72 301.28
  Q 501.01 303.60 499.79 305.71
  Z"
/>
<path fill="#ffffff" d="
  M 863.00 285.06
  L 863.00 560.00
  L 0.00 560.00
  L 0.00 293.44
  C 6.80 333.38 35.98 366.50 67.37 389.88
  C 129.17 435.90 207.16 460.84 282.18 474.12
  C 352.85 486.62 427.28 489.99 497.06 484.61
  C 573.09 478.74 649.53 463.41 719.76 432.95
  Q 755.33 417.52 787.20 395.44
  C 823.55 370.26 859.35 331.16 863.00 285.06
  Z"
/>
<path fill="#fbfaff" d="
  M 615.86 309.78
  A 3.90 3.89 1.0 0 1 613.83 307.68
  C 611.16 301.04 615.19 292.38 622.26 290.53
  Q 625.94 289.57 632.23 290.73
  A 0.43 0.43 0.0 0 1 632.56 291.29
  C 630.50 297.34 626.34 314.46 615.86 309.78
  Z"
/>
</svg>
